# xmcd
#
# Track frame offsets:
#  150
#  20007
#  32347
#  42303
#  53931
#  64117
#  77405
#  91057
#  100331
#  112865
#  123513
#  140154
#  150057
#  162693
#  174974
#  186570
#  199193
#  208892
#  222097
#  234307
#  243852
#  255396
#  265899
#  276326
#
# Disc length: 3812 seconds
#
# Revision: 0
# Processed by: cddbd v1.5.1PL2 Copyright (c) Steve Scherf et al.
# Submitted via: Collectorz.com_Music_Collector 6.9
#
DISCID=4c0ee218
DTITLE=Jerry Butler - ESQ./He Will Break Your Heart - Jerry Butler
DYEAR=2000
DGENRE=Soul
TTITLE0=September Song
TTITLE1=For Your Precious Love
TTITLE2=Don't Take Your Love From Me
TTITLE3=Come Back My Love 
TTITLE4=If You Let Me
TTITLE5=The Challenge
TTITLE6=Chi Town
TTITLE7=Rainbow Valley
TTITLE8=I Was Wrong
TTITLE9=Lost
TTITLE10=No End Of Time
TTITLE11=You Go Right Through Me
TTITLE12=He Will Break Your Heart
TTITLE13=The Gift Of Love
TTITLE14=Teardrops From My Eyes
TTITLE15=Give Me Your Love
TTITLE16=Have A Good Time
TTITLE17=A Lonely Soldier
TTITLE18=Thanks To Ypu
TTITLE19=Sweet Was The Wine
TTITLE20=Butterfly
TTITLE21=After The Laughter
TTITLE22=The Lights Went Out
TTITLE23=I Found A Love
EXTD=
EXTT0=
EXTT1=
EXTT2=
EXTT3=
EXTT4=
EXTT5=
EXTT6=
EXTT7=
EXTT8=
EXTT9=
EXTT10=
EXTT11=
EXTT12=
EXTT13=
EXTT14=
EXTT15=
EXTT16=
EXTT17=
EXTT18=
EXTT19=
EXTT20=
EXTT21=
EXTT22=
EXTT23=
PLAYORDER=
